<svg xmlns="http://www.w3.org/2000/svg" viewBox="0 0 77.87 113.1"><defs><style>.cls-1{fill:none;stroke:#545454;stroke-linecap:round;stroke-miterlimit:10;stroke-width:3.8px;}.cls-2{fill:#fff;}</style></defs><g id="Layer_2" data-name="Layer 2"><g id="Layer_2-2" data-name="Layer 2"><line class="cls-1" x1="41.88" y1="110.79" x2="44" y2="98.38"/><line class="cls-1" x1="63.9" y1="50.7" x2="37.64" y2="98.38"/><line class="cls-1" x1="28.16" y1="50.7" x2="17.31" y2="50.7"/><line class="cls-1" x1="73.32" y1="50.7" x2="54.47" y2="50.7"/><line class="cls-1" x1="20.68" y1="64.28" x2="37.64" y2="98.38"/><line class="cls-1" x1="37.64" y1="98.38" x2="75.97" y2="98.38"/><line class="cls-1" x1="75.97" y1="98.38" x2="56.81" y2="64.4"/><line class="cls-1" x1="20.68" y1="64.28" x2="56.81" y2="64.28"/><line class="cls-1" x1="28.16" y1="50.7" x2="1.9" y2="98.38"/><line class="cls-1" x1="17.31" y1="50.7" x2="15.92" y2="53.22"/><line class="cls-1" x1="46.09" y1="111.2" x2="37.68" y2="110.38"/><polygon class="cls-2" points="18.54 47.57 22.91 50.88 42 25.48 37.62 22.17 18.54 47.57"/><path class="cls-2" d="M21.75,46.8h0A3.46,3.46,0,0,0,17,48l-1.56,2.64,6,3.54L23,51.55A3.48,3.48,0,0,0,21.75,46.8Z"/><path class="cls-2" d="M20.47,46.85h0a1,1,0,0,0-1.27-.49l-5.28,2.37A1,1,0,0,0,13.44,50h0a1,1,0,0,0,1.27.49L20,48.13A1,1,0,0,0,20.47,46.85Z"/><path class="cls-2" d="M18.07,48h0a.94.94,0,0,0-1.31.34l-2.89,5a1,1,0,0,0,.34,1.32h0a1,1,0,0,0,1.32-.34l2.88-5A1,1,0,0,0,18.07,48Z"/><path class="cls-2" d="M19.46,48.78h0a1,1,0,0,0-1.32.34l-2.88,5a1,1,0,0,0,.34,1.33h0a1,1,0,0,0,1.32-.34l2.88-5A1,1,0,0,0,19.46,48.78Z"/><path class="cls-2" d="M20.83,49.71h0a1,1,0,0,0-1.32.34l-2.88,5A1,1,0,0,0,17,56.4h0a1,1,0,0,0,1.32-.34l2.88-5A1,1,0,0,0,20.83,49.71Z"/><path class="cls-2" d="M22.32,50.6h0a1,1,0,0,0-1.32.33l-2.88,5a1,1,0,0,0,.34,1.32h0a1,1,0,0,0,1.32-.34l2.88-5A1,1,0,0,0,22.32,50.6Z"/><path class="cls-2" d="M26,35.08l8.65,6.54,6-6.31c3.35-3.52,3.57-8.7.47-10.72h0c-2.56-1.67-6.44-.52-8.93,2.64Z"/><rect x="44.32" y="96.48" width="5.74" height="5.88" transform="translate(-56.97 134.97) rotate(-83.45)"/><path class="cls-2" d="M48,50.92h0a5.81,5.81,0,0,1,5.81,5.81V97.47a0,0,0,0,1,0,0H42.16a0,0,0,0,1,0,0V56.73A5.81,5.81,0,0,1,48,50.92Z" transform="translate(4.36 -2.64) rotate(3.31)"/><path class="cls-2" d="M24.6,11.74c-1.08-5.81,1-10,6.09-11.06s8.36,2.44,9.53,8.23-.76,6.7-4.87,9.73C28.38,23.79,26.39,21.38,24.6,11.74Z"/><polygon class="cls-2" points="45.89 18.74 41.6 24.97 33.45 19.31 37.74 13.08 45.89 18.74"/><path class="cls-2" d="M51,101.36s1.35,5.18,1.08,7.45-3.56,1.62-5,1.49-2.88.09-4.16-1.17-1.36.29-3.1.39-8.67-.79-9.86-2.59-1.29-3.58,1.2-3.9,9.69-2.12,11-3,3.5-2.78,3.33-1.36,1,4.86,3,2.38S51,101.36,51,101.36Z"/><path class="cls-2" d="M58.86,48.43,75.7,40.61c-9.61-10.53-23-28.41-31.8-24.32L32.8,26.48l5,6.14a17.79,17.79,0,0,0,9.15,8.59Z"/><path class="cls-2" d="M23.75,5.59c-.7-3,4.86-5.19,8.69-5.54,6.34-.58,7,4,7.64,6.25,1.22,4.49.72,10-2,9.76-1.34-.13-1.52-8.76-3.15-8.43C34,7.81,33,10,32.48,11c-.76,1.42-1.88.77-1.95-.56C30.4,7.66,30,6.91,28.94,5.3,27.71,3.48,24.42,8.4,23.75,5.59Z"/><path class="cls-2" d="M24.35,9.76l-1.1,4a.8.8,0,0,0,.83.86,11.42,11.42,0,0,0,2.66-.22Z"/><path class="cls-2" d="M45.73,59h0a6.82,6.82,0,0,0,8.89,3.76l15.06-6.11a10.11,10.11,0,0,0,5.55-13.16l-1.32-3.28L49.49,50.15A6.83,6.83,0,0,0,45.73,59Z"/></g></g></svg>