<?xml version="1.0" encoding="UTF-8"?>
<svg width="229px" height="211px" viewBox="0 0 229 211" version="1.1" xmlns="http://www.w3.org/2000/svg" xmlns:xlink="http://www.w3.org/1999/xlink">
    <title>bike</title>
    <g id="design-three" stroke="none" stroke-width="1" fill="none" fill-rule="evenodd">
        <g id="Desktop-HD" transform="translate(-1069.000000, -3156.000000)" fill="#FFFFFF" fill-rule="nonzero">
            <g id="bike" transform="translate(1069.000000, 3156.000000)">
                <path d="M155,16.999743 C155,26.3889267 147.388927,34 137.999743,34 C128.611073,34 121,26.3889267 121,16.999743 C121,7.61107331 128.611073,0 137.999743,0 C147.388927,0 155,7.61107331 155,16.999743" id="Fill-6"></path>
                <path d="M75.6169141,182.278957 C70.0421635,195.483866 57.0154133,204.770715 41.8621852,204.770715 C21.6513178,204.770715 5.20582947,188.249483 5.20582947,167.94501 C5.20582947,147.641057 21.6513178,131.119826 41.8621852,131.119826 C48.2742624,131.119826 54.3039467,132.784494 59.5527824,135.70469 L43.7016094,161.709012 C43.1161025,161.534633 42.500025,161.438854 41.8621852,161.438854 C38.2833394,161.438854 35.3858577,164.349681 35.3858577,167.94501 C35.3858577,171.540859 38.2833394,174.451686 41.8621852,174.451686 C44.5042201,174.451686 46.7731887,172.860934 47.7794314,170.582036 L71.6821008,170.582036 L72.584714,167.313082 L48.3089783,167.313082 C48.1613062,165.792602 47.4934139,164.424117 46.486653,163.390857 L62.3295357,137.408398 C68.5022287,141.596616 73.339137,147.628044 76.0635574,154.705746 L78.1760453,147.052854 C74.9443584,141.39621 70.436992,136.563051 65.0492927,132.94586 L75.4562883,115.875465 L81.3776797,135.455875 L83,129.572799 L78.8921254,115.984256 L71.8644888,104 L74.1894173,111.691932 L62.2730576,131.241631 C56.2299015,127.833694 49.2675515,125.89002 41.8621852,125.89002 C18.7797435,125.89002 0,144.756257 0,167.94501 C0,191.134283 18.7797435,210 41.8621852,210 C59.3450052,210 74.3541883,199.179137 80.6056397,183.856175 L77.2739503,182.928063 C76.6925886,182.766698 76.1371343,182.549114 75.6169141,182.278957" id="Fill-7"></path>
                <path d="M186.999194,205.78438 C166.721402,205.78438 150.221457,189.307963 150.221457,169.059086 C150.221457,152.947612 160.671751,139.235521 175.156706,134.29815 L183.982947,163.313443 C181.91597,164.399965 180.501422,166.564185 180.501422,169.059086 C180.501422,172.644663 183.413177,175.548113 186.999194,175.548113 C190.589891,175.548113 193.502166,172.644663 193.502166,169.059086 C193.502166,165.530094 190.681387,162.67025 187.173349,162.578885 L178.290442,133.385533 C181.084708,132.702888 184.000622,132.333792 186.999194,132.333792 C207.281666,132.333792 223.777452,148.810209 223.777452,169.059086 C223.777452,189.307963 207.281666,205.78438 186.999194,205.78438 Z M186.999194,127.118172 C183.469842,127.118172 180.044462,127.55735 176.766723,128.378601 L165.69883,92.0135774 L172.140458,90.9607978 L176.909685,92.670786 C179.815202,93.712145 184.143585,93.3020385 186.06292,88.5141752 L186.244353,88.0101077 C187.874125,83.2975171 184.452384,79.2649765 181.546867,78.2236176 L147.495293,66.0138654 L116.131933,24.5302981 C113.415126,20.9431643 108.780544,21.5152369 106.307554,24.0968311 L61.1407799,71.4101398 C59.9913619,72.6103501 57.5178517,76.520897 60.2128237,81.7629921 L85.8041403,125.144989 L72.6084471,172.650892 C71.5167339,176.583242 73.8233679,180.654717 77.7608135,181.745392 L82.7941311,183.139754 C86.7315767,184.229911 90.8093854,181.926566 91.9016184,177.994735 L106.356421,125.953262 C106.990134,123.227871 106.462473,121.359551 104.9138,118.14878 L94.5737164,100.620103 L112.803767,105.387201 L133.020736,105.387201 L134.082817,97.8853677 C134.653107,93.848155 131.837007,90.1099566 127.78935,89.5363267 L93.3660737,79.8967481 L119.418509,52.6999405 L136.447675,76.6672895 C136.913473,77.5176115 137.596054,78.2506119 138.459027,78.7686958 C138.945619,79.0744587 165.525196,88.5884097 165.525196,88.5884097 L154.021138,90.5143528 C153.076547,90.6794336 152.441273,91.5790722 152.60659,92.5264701 C152.771907,93.469715 153.67283,94.1040822 154.621581,93.9390013 L162.460601,92.5789014 L166.686571,106.473724 L99.5420511,106.473724 L101.465546,109.733292 L167.67899,109.733292 L170.129626,117.786952 L105.165414,160.04505 C103.437388,158.641343 101.300229,157.715749 98.9546055,157.489412 L93.1612475,178.342547 C93.0479173,178.751096 92.904435,179.146667 92.7349595,179.524588 C94.2711559,180.267971 95.9903442,180.685345 97.8140251,180.685345 C104.242656,180.685345 109.456886,175.47855 109.456886,169.059086 C109.456886,166.616617 108.699445,164.348053 107.411224,162.474541 L171.117367,121.033542 L173.632986,129.29537 C157.006714,134.884758 144.998389,150.596508 144.998389,169.059086 C144.998389,192.185457 163.840319,211 186.999194,211 C210.162749,211 229,192.185457 229,169.059086 C229,145.932715 210.162749,127.118172 186.999194,127.118172 L186.999194,127.118172 Z" id="Fill-8"></path>
                <path d="M118.047282,156.931257 C121.895387,157.465983 125.453871,154.823092 125.996046,151.024394 L126,151 L117,156.783915 L118.047282,156.931257" id="Fill-9"></path>
                <path d="M128.217587,144.464234 L133,111 L112.483677,111 L107.074123,148.852739 C106.663238,151.733297 107.992418,154.461343 110.271541,156 L128.217587,144.464234" id="Fill-10"></path>
            </g>
        </g>
    </g>
</svg>